<?xml version="1.0" encoding="utf-8"?>
<!-- Generator: Adobe Illustrator 19.0.0, SVG Export Plug-In . SVG Version: 6.00 Build 0)  -->
<svg version="1.1" id="Layer_1" xmlns="http://www.w3.org/2000/svg" xmlns:xlink="http://www.w3.org/1999/xlink" x="0px" y="0px"
	 viewBox="0 0 24 24" enable-background="new 0 0 24 24" xml:space="preserve">
<g id="XMLID_2_">
	<path id="XMLID_117_" d="M12,1.5c5.8,0,10.5,4.7,10.5,10.5S17.8,22.5,12,22.5S1.5,17.8,1.5,12S6.2,1.5,12,1.5 M12,0
		C5.4,0,0,5.4,0,12s5.4,12,12,12s12-5.4,12-12S18.6,0,12,0L12,0z"/>
</g>
<g id="XMLID_20_">
	<path id="XMLID_129_" d="M63,1.5c1.9,0,3.5,1.6,3.5,3.5v14c0,1.9-1.6,3.5-3.5,3.5H49c-1.9,0-3.5-1.6-3.5-3.5V5
		c0-1.9,1.6-3.5,3.5-3.5H63 M63,0H49c-2.8,0-5,2.3-5,5v14c0,2.8,2.3,5,5,5h14c2.8,0,5-2.3,5-5V5C68,2.3,65.8,0,63,0L63,0z"/>
</g>
<g id="XMLID_39_">
	<path id="XMLID_141_" d="M100,4.6l9.4,16.3H90.6L100,4.6 M100,1.6L88,22.4h24L100,1.6L100,1.6z"/>
</g>
</svg>
