<?xml version="1.0" encoding="utf-8"?>
<!-- Generator: Adobe Illustrator 19.0.0, SVG Export Plug-In . SVG Version: 6.00 Build 0)  -->
<svg version="1.1" id="Layer_1" xmlns="http://www.w3.org/2000/svg" xmlns:xlink="http://www.w3.org/1999/xlink" x="0px" y="0px"
	 viewBox="0 0 24 24" enable-background="new 0 0 24 24" xml:space="preserve">
<g id="XMLID_2_">
	<path id="XMLID_117_" d="M-32,1.5c5.8,0,10.5,4.7,10.5,10.5S-26.2,22.5-32,22.5S-42.5,17.8-42.5,12S-37.8,1.5-32,1.5 M-32,0
		c-6.6,0-12,5.4-12,12s5.4,12,12,12s12-5.4,12-12S-25.4,0-32,0L-32,0z"/>
</g>
<g id="XMLID_20_">
	<path id="XMLID_129_" d="M19,1.5c1.9,0,3.5,1.6,3.5,3.5v14c0,1.9-1.6,3.5-3.5,3.5H5c-1.9,0-3.5-1.6-3.5-3.5V5
		c0-1.9,1.6-3.5,3.5-3.5H19 M19,0H5C2.3,0,0,2.3,0,5v14c0,2.8,2.3,5,5,5h14c2.8,0,5-2.3,5-5V5C24,2.3,21.8,0,19,0L19,0z"/>
</g>
<g id="XMLID_39_">
	<path id="XMLID_141_" d="M56,4.6l9.4,16.3H46.6L56,4.6 M56,1.6L44,22.4h24L56,1.6L56,1.6z"/>
</g>
</svg>
