<?xml version="1.0" encoding="utf-8"?>
<!-- Generator: Adobe Illustrator 19.0.0, SVG Export Plug-In . SVG Version: 6.00 Build 0)  -->
<svg version="1.1" id="Layer_1" xmlns="http://www.w3.org/2000/svg" xmlns:xlink="http://www.w3.org/1999/xlink" x="0px" y="0px"
	 viewBox="0 0 24 24" enable-background="new 0 0 24 24" xml:space="preserve">
<g id="XMLID_2_">
	<path id="XMLID_117_" d="M-76,1.5c5.8,0,10.5,4.7,10.5,10.5S-70.2,22.5-76,22.5S-86.5,17.8-86.5,12S-81.8,1.5-76,1.5 M-76,0
		c-6.6,0-12,5.4-12,12s5.4,12,12,12s12-5.4,12-12S-69.4,0-76,0L-76,0z"/>
</g>
<g id="XMLID_20_">
	<path id="XMLID_129_" d="M-25,1.5c1.9,0,3.5,1.6,3.5,3.5v14c0,1.9-1.6,3.5-3.5,3.5h-14c-1.9,0-3.5-1.6-3.5-3.5V5
		c0-1.9,1.6-3.5,3.5-3.5H-25 M-25,0h-14c-2.8,0-5,2.3-5,5v14c0,2.8,2.3,5,5,5h14c2.8,0,5-2.3,5-5V5C-20,2.3-22.3,0-25,0L-25,0z"/>
</g>
<g id="XMLID_39_">
	<path id="XMLID_141_" d="M12,4.6l9.4,16.3H2.6L12,4.6 M12,1.6L0,22.4h24L12,1.6L12,1.6z"/>
</g>
</svg>
